<?xml version="1.0" encoding="UTF-8"?>
<svg id="Layer_1" data-name="Layer 1" xmlns="http://www.w3.org/2000/svg" xmlns:xlink="http://www.w3.org/1999/xlink" viewBox="0 0 2628.38 2107.69">
  <defs>
    <style>
      .cls-1 {
        opacity: .07;
      }

      .cls-1, .cls-2, .cls-3, .cls-4, .cls-5, .cls-6, .cls-7, .cls-8, .cls-9, .cls-10, .cls-11 {
        fill: #fff;
      }

      .cls-12 {
        font-size: 27.04px;
      }

      .cls-12, .cls-7, .cls-8, .cls-10 {
        font-family: Poppins-Regular, Poppins;
      }

      .cls-2, .cls-6, .cls-7 {
        font-size: 35.35px;
      }

      .cls-2, .cls-6, .cls-13, .cls-11 {
        font-family: Poppins-Medium, Poppins;
        font-weight: 500;
      }

      .cls-4, .cls-14, .cls-15, .cls-16 {
        stroke-miterlimit: 10;
      }

      .cls-4, .cls-16 {
        stroke: #000;
      }

      .cls-5 {
        font-family: Poppins-SemiBold, Poppins;
        font-size: 49.62px;
        font-weight: 600;
      }

      .cls-14 {
        opacity: .3;
      }

      .cls-14, .cls-15 {
        stroke: #fff;
      }

      .cls-14, .cls-15, .cls-16 {
        fill: none;
      }

      .cls-6 {
        letter-spacing: 0em;
      }

      .cls-15, .cls-16 {
        stroke-width: 3px;
      }

      .cls-8 {
        font-size: 43.96px;
      }

      .cls-17 {
        fill-rule: evenodd;
      }

      .cls-17, .cls-13 {
        fill: #f06022;
      }

      .cls-16 {
        stroke-dasharray: 12;
      }

      .cls-9 {
        opacity: .06;
      }

      .cls-13 {
        font-size: 27.19px;
      }

      .cls-18 {
        fill: url(#linear-gradient);
      }

      .cls-10 {
        font-size: 24.4px;
      }

      .cls-11 {
        font-size: 37.98px;
      }
    </style>
    <linearGradient id="linear-gradient" x1="342.31" y1="1829.45" x2="1157.8" y2="416.99" gradientUnits="userSpaceOnUse">
      <stop offset="0" stop-color="#f06022"/>
      <stop offset="1" stop-color="#df6900"/>
    </linearGradient>
  </defs>
  <path class="cls-3" d="M2543.49,620.14v1006.21c0,50.06-40.57,90.64-90.63,90.64h-968.11c0-36.47-29.57-66.03-66.03-66.03V595.54c36.47,0,66.03-29.57,66.03-66.03h968.11c50.05,0,90.63,40.57,90.63,90.64Z"/>
  <path class="cls-18" d="M1418.72,595.54v1055.42c-36.47,0-66.03,29.57-66.03,66.03H171.83c-50.05,0-90.63-40.57-90.63-90.64v-1006.21c0-50.06,40.57-90.64,90.63-90.64h1180.86c0,36.47,29.57,66.03,66.03,66.03Z"/>
  <rect class="cls-4" x="1541.16" y="666.77" width="877.03" height="926.69" rx="52.94" ry="52.94"/>
  <line class="cls-16" x1="1418.72" y1="622.2" x2="1418.72" y2="1630.07"/>
  <line class="cls-15" x1="1240.64" y1="875.35" x2="242.72" y2="875.35"/>
  <line class="cls-14" x1="1240.64" y1="1479.75" x2="242.72" y2="1479.75"/>
  <line class="cls-14" x1="1240.64" y1="1335.38" x2="242.72" y2="1335.38"/>
  <line class="cls-14" x1="1240.64" y1="1090.37" x2="242.72" y2="1090.37"/>
  <path class="cls-9" d="M1245.8,529.5c-89.02,449.94-485.9,789.2-961.99,789.2-69.46,0-137.24-7.21-202.61-20.95v-677.61c0-50.06,40.57-90.64,90.63-90.64h1073.97Z"/>
  <text class="cls-8" transform="translate(240.75 720.15)"><tspan x="0" y="0">NexGate</tspan></text>
  <text class="cls-10" transform="translate(240.21 999.19)"><tspan x="0" y="0">Name Of Attendee:</tspan></text>
  <text class="cls-11" transform="translate(240.21 1044.41)"><tspan x="0" y="0">{{ATTENDEE_NAME}}</tspan></text>
  <text class="cls-10" transform="translate(756.63 999.19)"><tspan x="0" y="0">Seat:</tspan></text>
  <text class="cls-11" transform="translate(756.63 1044.41)"><tspan x="0" y="0">{{SEAT_TYPE}}</tspan></text>
  <path class="cls-1" d="M1418.72,1036.87v614.09c-36.47,0-66.03,29.57-66.03,66.03H421.82c-.73-13.08-1.09-26.27-1.09-39.53,0-389.07,315.42-704.47,704.48-704.47,104.75,0,204.16,22.86,293.51,63.88Z"/>
  <g>
    <text class="cls-2" transform="translate(240.75 1181.75)"><tspan x="0" y="0">{{EVENT_DATE_RANGE}}</tspan></text>
    <text class="cls-2" transform="translate(757.35 1181.75)"><tspan x="0" y="0">{{EVENT_TIME}}</tspan></text>
  </g>
  <text class="cls-10" transform="translate(240.21 1380.75)"><tspan x="0" y="0">Venue:</tspan></text>
  <text class="cls-11" transform="translate(240.21 1425.97)"><tspan x="0" y="0">{{VENUE}}</tspan></text>
  <text class="cls-10" transform="translate(240.21 1544.04)"><tspan x="0" y="0">Ticket Number:</tspan></text>
  <text class="cls-11" transform="translate(240.21 1589.26)"><tspan x="0" y="0">{{TICKET_NUMBER}}</tspan></text>
  <text class="cls-5" transform="translate(240.21 818.52)"><tspan x="0" y="0">{{EVENT_TITLE}}</tspan></text>
  <rect class="cls-3" x="1033.13" y="681.46" width="207.51" height="52.06" rx="26.03" ry="26.03"/>
  <text class="cls-13" transform="translate(1068.93 717.69)"><tspan x="0" y="0">ATTENDEE</tspan></text>
  <text class="cls-12" transform="translate(1895.25 1550.64)"><tspan x="0" y="0">SCAN TO VERIFY</tspan></text>
  <image width="575" height="579" transform="translate(1576.12 702.34) scale(1.4)" xlink:href="{{QR_CODE_BASE64}}"/>
  <circle class="cls-3" cx="1984.5" cy="1130.03" r="45.76"/>
  <path class="cls-17" d="M1975.4,1147.71c2.37,1.77,5.3,2.72,8.39,2.72,2.44,0,4.3-.45,6.52-1.55.93-.45,1.94-.84,2.27-.84,1.43,0,2.27,1.48,1.58,2.82-.45.88-3.11,2.22-5.78,2.94-2.44.65-6.43.69-8.82.12-2.01-.5-5.69-2.25-6.74-3.23-1.05-.96-1.12-2.37-.17-3.11.86-.67,1.74-.62,2.75.12Z"/>
  <path class="cls-17" d="M1991.86,1137.51c-1.07-.6-2.29-.57-3.37.05-1.15.67-1.65,1.58-1.65,3.01,0,2.1,1.36,3.42,3.51,3.42,3.37,0,4.52-4.87,1.51-6.47ZM1988.63,1141.36c-.48-.93-.45-1.03.26-1.89.96-1.15,2.39-.96,2.96.43.84,2.01-2.22,3.42-3.23,1.46Z"/>
  <path class="cls-17" d="M1979.34,1137.17c-.65-.43-2.05-.62-2.96-.43-.31.05-.91.48-1.34.91-1.43,1.41-1.39,3.61.1,5.02.93.88,2.8,1.1,3.99.48,2.22-1.19,2.34-4.59.22-5.97ZM1978.72,1141.36c-.72.72-1.98.65-2.6-.14-.67-.84-.62-1.65.1-2.37.72-.72,1.53-.76,2.37-.1.79.62.86,1.89.14,2.6Z"/>
  <path class="cls-17" d="M2013.05,1113.55c-.26-.36-1-.48-4.49-.76-2.27-.17-4.25-.33-4.4-.33-.12,0-.62.19-1.07.43-.69.33-1,.79-2.01,3.03-.67,1.43-1.22,2.65-1.24,2.7,0,.02-6.62-.43-14.67-1.03-8.05-.6-15.22-1.07-15.94-1.07-1.55,0-2.46.69-2.46,1.94,0,1,4.23,12.85,4.85,13.52.26.29.74.57,1.1.65.33.07,5.38.48,11.21.88l10.58.76.65-.48c.48-.36,1.67-2.77,4.78-9.63,2.27-5.04,4.16-9.2,4.23-9.27.05-.05,2.01.02,4.32.19,4.01.29,4.25.29,4.56-.12.38-.55.38-.86,0-1.41ZM1996.33,1126.42l-2.48,5.47-1.17-.07c-5.66-.31-19.3-1.46-19.42-1.62-.19-.19-4.09-11.13-4.09-11.42,0-.07.45-.1,1.03-.02.55.07,7.19.57,14.74,1.12,7.55.55,13.76,1,13.79,1.03.05.05-1.05,2.53-2.39,5.52Z"/>
  <g>
    <path class="cls-17" d="M1987.08,1182.61c-.81,0-1.67-.01-2.61-.03-4.66-.1-6.19-.24-9.05-.83-4.46-.96-9.03-2.53-12.88-4.43l-1.45-.71-10.05,2.67c-10.18,2.75-11.4,3.01-12.64,3.01-2.27,0-4.18-1.52-4.63-3.64-.29-1.29-.27-1.49,3.04-13.88l2.64-9.78-.6-1.19c-2.57-5.11-4.23-10.41-5.09-16.22-.59-3.88-.59-11,0-14.92,0-.07,1.2-7.5,2.34-9.31.85-1.39,2.4-2.26,4.09-2.26,1.11,0,1.94.3,4.15,1.11.11.04,2.41.89,2.91,1.15.39.2.75.46,1.07.76,2.02,1.94,1.34,4.23.89,5.75-.97,3.17-1.25,5.46-1.25,10.28,0,5.33.3,7.4,1.71,11.69.69,2.13,2.65,6.41,3.89,8.49l.67,1.12c.62,1.05.8,2.3.48,3.47,0,0-2.3,8.56-2.37,8.8.24-.06,8.83-2.37,8.83-2.37.38-.1.78-.15,1.17-.15.78,0,1.56.21,2.25.6l1.08.62c2.12,1.26,6.39,3.23,8.51,3.92,4.29,1.41,6.37,1.71,11.7,1.71s7.15-.27,10.88-1.44l1.86-.56c.43-.13.87-.19,1.3-.19,1.78,0,3.44,1.06,4.16,2.78l.98,2.37c1.32,3.11,1.32,3.63,1.32,4.3,0,3.89-3.39,4.77-7.31,5.79-4.38,1.15-7.41,1.54-12.01,1.54Z"/>
    <path class="cls-3" d="M1940.21,1115.58c.31,0,.96.23,2.6.84,1.29.48,2.37.91,2.41.93.02.02-.12.57-.31,1.22-1.1,3.58-1.43,6.31-1.43,11.56,0,5.81.38,8.36,1.94,13.09.79,2.44,2.89,7.02,4.3,9.39l.67,1.12-2.17,8.08c-1.19,4.47-2.15,8.12-2.13,8.15,0,0,0,0,0,0,.21,0,3.8-.94,8.16-2.1l8.1-2.17,1.08.62c2.37,1.41,6.95,3.51,9.37,4.3,4.73,1.55,7.29,1.94,13.09,1.94s8.05-.33,12.23-1.65l1.82-.55.98,2.37c.55,1.29.98,2.46.98,2.58,0,.33-.81.62-3.94,1.43-3.93,1.03-6.57,1.4-10.87,1.4-.78,0-1.61-.01-2.51-.03-4.47-.1-5.71-.22-8.24-.74-4.11-.88-8.27-2.32-11.8-4.06l-2.96-1.46-11.68,3.11c-7.99,2.16-10.74,2.85-11.48,2.85-.15,0-.22-.03-.23-.08-.05-.21,1.31-5.52,2.99-11.78l3.08-11.42-1.36-2.72c-2.34-4.66-3.87-9.51-4.66-14.86-.53-3.46-.53-10.11,0-13.59.36-2.39,1.41-7.12,1.7-7.57.06-.1.13-.17.29-.17M1940.21,1106.58c-3.27,0-6.24,1.66-7.95,4.45h0c-1.59,2.62-2.64,9.04-2.93,10.96-.65,4.34-.65,11.95,0,16.28.9,6.11,2.65,11.76,5.34,17.2l-2.19,8.11c-.86,3.23-1.63,6.16-2.17,8.28-1.06,4.17-1.4,5.49-.94,7.66.87,4.24,4.6,7.27,9.04,7.27,1.88,0,3.3-.33,13.82-3.17l8.39-2.23c4.21,2.07,8.99,3.72,13.82,4.75.02,0,.04,0,.06.01,3.34.69,5.2.83,9.88.93.96.02,1.86.04,2.7.04,4.96,0,8.41-.44,13.16-1.69,1.99-.52,3.06-.83,3.92-1.14,6.25-2.26,6.73-7.46,6.73-9,0-1.65-.36-2.96-1.68-6.06l-.96-2.33c-1.42-3.44-4.76-5.56-8.31-5.56-.86,0-1.74.13-2.61.39l-1.82.55s-.06.02-.09.03c-3.09.97-4.63,1.23-9.53,1.23s-6.67-.3-10.29-1.49c-1.83-.6-5.78-2.42-7.57-3.48-.03-.02-.07-.04-.1-.06l-1.08-.62c-1.38-.8-2.94-1.21-4.5-1.21-.78,0-1.57.1-2.33.31l-1.28.34.34-1.26c.63-2.35.29-4.85-.96-6.95l-.67-1.12c-1.07-1.8-2.89-5.75-3.47-7.55-1.2-3.65-1.5-5.24-1.5-10.32,0-4.77.31-6.54,1.04-8.93,0-.03.02-.05.02-.08.51-1.73,1.87-6.32-1.96-10.14-.68-.68-1.47-1.25-2.32-1.68-.49-.24-1.6-.69-3.32-1.33-2.48-.91-3.82-1.4-5.73-1.4h0Z"/>
  </g>
  <g>
    <path class="cls-17" d="M1947.05,1117.12c-1.22,0-6.57-1.92-8.08-3.12h0c-2.33-2.08-2.53-4.63,2.87-12.72,8.27-12.63,21.15-20.9,36.27-23.24,2.41-.37,6.22-.41,7.74-.41s5.13.04,7.57.38c5.68.85,11.48,2.69,16.37,5.18,2.94,1.52,7.88,4.7,10.11,6.7l1.25,1.08c.94.82,1.5,1.99,1.54,3.24.04,1.25-.43,2.46-1.32,3.34l-1.86,1.86c-2.12,2.17-3.34,3.21-5.28,3.21-1.52,0-2.58-.62-4.81-2.37-4.97-3.83-10.4-6.31-16.58-7.56-1.87-.38-2.61-.46-6.94-.46s-5.08.08-6.93.46c-3.65.75-6.66,1.79-10.05,3.49-4.05,2.01-6.43,3.75-9.81,7.15-3.1,3.07-5.04,5.66-6.75,8.94l-.59,1.13c-.31.6-.53,1-.69,1.3-.06.11-.12.21-.18.32-.21.34-.33.48-.57.73h0c-.84.87-2.01,1.39-3.26,1.39Z"/>
    <path class="cls-3" d="M1985.84,1082.12c2.68,0,5.36.11,6.95.34,5.09.76,10.49,2.46,14.96,4.73,2.77,1.43,7.33,4.42,9.15,6.04l1.29,1.12-1.86,1.86c-1.03,1.05-1.98,1.89-2.1,1.89s-1.03-.62-2.03-1.41c-5.52-4.25-11.64-7.05-18.47-8.43-2.32-.48-3.44-.55-7.84-.55s-5.52.07-7.84.55c-3.97.81-7.38,1.98-11.16,3.87-4.47,2.22-7.26,4.25-10.99,8-3.44,3.42-5.64,6.36-7.55,10.03-.69,1.31-1.27,2.41-1.29,2.44,0,0,0,0-.01,0-.27,0-4.91-1.8-5.08-1.96-.24-.22,1.94-4.37,3.61-6.88,7.55-11.54,19.47-19.16,33.21-21.29,1.56-.24,4.3-.36,7.05-.36M1985.84,1073.12h0c-2.02,0-5.81.06-8.43.47-16.37,2.53-30.35,11.49-39.34,25.22-.94,1.42-2.06,3.31-2.98,5.08-.48.92-.87,1.73-1.16,2.4-2.41,5.65.32,9.34,1.68,10.71h0c1.47,1.47,2.85,2,5.61,3.07,2.81,1.09,4.02,1.53,5.83,1.53,2.43,0,4.71-.98,6.38-2.64h0c.5-.5.82-.89,1.16-1.42.17-.27.34-.54.48-.83.2-.36.42-.78.69-1.3l.56-1.06s.02-.03.03-.05c1.49-2.87,3.15-5.06,5.9-7.8.01-.01.03-.03.04-.04,3.02-3.04,5.03-4.51,8.61-6.29,3.04-1.52,5.71-2.45,8.96-3.11,1.4-.29,1.78-.37,6.03-.37s4.63.08,6.02.36c5.51,1.12,10.33,3.31,14.76,6.72,1.98,1.56,4.23,3.3,7.56,3.3,4.02,0,6.41-2.41,8.5-4.56l1.83-1.83c1.76-1.76,2.72-4.18,2.63-6.68s-1.2-4.84-3.09-6.48l-1.25-1.09c-2.57-2.28-7.82-5.66-10.96-7.28-.02-.01-.04-.02-.06-.03-5.31-2.7-11.6-4.69-17.7-5.61-.03,0-.05,0-.08-.01-2.63-.37-6.27-.43-8.2-.43h0Z"/>
  </g>
  <g>
    <path class="cls-17" d="M2006.72,1178.09c-.53,0-1.07-.09-1.58-.29-1.17-.44-2.11-1.34-2.58-2.5l-.96-2.32s-.99-2.4-1.16-2.9c-.02-.06-.04-.12-.06-.18-1.09-3.82,2.72-5.85,3.97-6.52,4.29-2.36,9.7-7.21,12.54-11.24,4.87-6.89,7.2-14.69,6.95-23.2-.26-8.42-2.83-15.53-8.1-22.38-1.72-2.19-2.34-3.25-2.34-4.77,0-1.99,1.09-3.17,3.18-5.26l1.82-1.84c.85-.86,2-1.34,3.2-1.34.03,0,.07,0,.1,0,1.24.03,2.41.56,3.24,1.48l1.15,1.27c1.17,1.25,3.17,4.17,3.39,4.5,6.12,9.14,8.95,18.51,8.95,29.54,0,5.13-.45,8.84-1.61,13.23-3.23,12.49-10.88,23.3-21.54,30.43-1.62,1.1-3.78,2.41-4.89,2.99l-1.67.83c-.63.32-1.32.48-2.01.48Z"/>
    <path class="cls-3" d="M2021.6,1097.85l1.15,1.27c.65.69,1.98,2.51,3.01,4.01,5.57,8.31,8.17,16.94,8.17,27,0,4.71-.38,8-1.46,12.09-2.96,11.44-9.94,21.31-19.69,27.83-1.55,1.05-3.56,2.27-4.44,2.72l-1.62.81-.96-2.32c-.53-1.27-1-2.46-1.05-2.6-.05-.17.74-.76,1.77-1.31,4.95-2.72,10.87-8.03,14.1-12.61,5.47-7.74,8.05-16.41,7.76-25.92-.29-9.34-3.23-17.44-9.03-24.99-.79-1-1.41-1.91-1.41-2.03s.84-1.05,1.86-2.08l1.84-1.86M2021.6,1088.85c-2.4,0-4.71.96-6.4,2.68l-1.82,1.84c-2.21,2.21-4.48,4.49-4.48,8.42,0,3.33,1.75,5.57,3.3,7.55,4.65,6.05,6.92,12.33,7.14,19.75.23,7.61-1.77,14.3-6.12,20.45-2.46,3.49-7.3,7.83-11.05,9.91-7.39,3.99-6.74,9.5-6.12,11.69.04.13.07.25.12.37.19.58.88,2.26,1.28,3.21l.95,2.3c.95,2.31,2.82,4.12,5.17,5,1.02.38,2.09.57,3.15.57,1.38,0,2.76-.32,4.02-.95l1.62-.81s.06-.03.09-.04c1.45-.74,3.85-2.24,5.38-3.28,11.53-7.72,19.84-19.46,23.35-33.03,1.25-4.76,1.74-8.79,1.74-14.34,0-11.8-3.17-22.26-9.69-32.01-.01-.02-.03-.04-.04-.07-.55-.81-2.43-3.53-3.8-5.01l-1.12-1.23c-1.66-1.83-4-2.9-6.48-2.96-.06,0-.13,0-.19,0h0Z"/>
  </g>
</svg>